<?xml version="1.0" encoding="UTF-8"?>
<svg xmlns="http://www.w3.org/2000/svg" xmlns:xlink="http://www.w3.org/1999/xlink" viewBox="0 0 96 96" width="96px" height="96px">
<g id="surface453767">
<path style=" stroke:none;fill-rule:nonzero;fill:rgb(100%,100%,100%);fill-opacity:1;" d="M 45 6 C 23.507812 6 6 23.507812 6 45 C 6 66.492188 23.507812 84 45 84 C 66.492188 84 84 66.492188 84 45 C 84 23.507812 66.492188 6 45 6 Z M 45 12 C 63.257812 12 78 26.742188 78 45 C 78 63.257812 63.257812 78 45 78 C 26.742188 78 12 63.257812 12 45 C 12 26.742188 26.742188 12 45 12 Z M 42 24 L 42 42 L 24 42 L 24 48 L 42 48 L 42 66 L 48 66 L 48 48 L 66 48 L 66 42 L 48 42 L 48 24 Z M 42 24 "/>
</g>
</svg>
