<?xml version="1.0" encoding="UTF-8"?>
<svg xmlns="http://www.w3.org/2000/svg" xmlns:xlink="http://www.w3.org/1999/xlink" viewBox="0 0 48 48" width="48px" height="48px">
<g id="surface453772">
<path style=" stroke:none;fill-rule:nonzero;fill:rgb(100%,100%,100%);fill-opacity:1;" d="M 22.5 3 C 11.753906 3 3 11.753906 3 22.5 C 3 33.246094 11.753906 42 22.5 42 C 33.246094 42 42 33.246094 42 22.5 C 42 11.753906 33.246094 3 22.5 3 Z M 22.5 6 C 31.628906 6 39 13.371094 39 22.5 C 39 31.628906 31.628906 39 22.5 39 C 13.371094 39 6 31.628906 6 22.5 C 6 13.371094 13.371094 6 22.5 6 Z M 21 12 L 21 21 L 12 21 L 12 24 L 21 24 L 21 33 L 24 33 L 24 24 L 33 24 L 33 21 L 24 21 L 24 12 Z M 21 12 "/>
</g>
</svg>
