<?xml version="1.0" standalone="no"?>
<!DOCTYPE svg PUBLIC "-//W3C//DTD SVG 20010904//EN"
 "http://www.w3.org/TR/2001/REC-SVG-20010904/DTD/svg10.dtd">
<svg version="1.0" xmlns="http://www.w3.org/2000/svg"
 width="48.000000pt" height="48.000000pt" viewBox="0 0 48.000000 48.000000"
 preserveAspectRatio="xMidYMid meet">

<g transform="translate(0.000000,48.000000) scale(0.100000,-0.100000)"
fill="#000000" stroke="none">
<path d="M120 420 c0 -6 47 -10 120 -10 73 0 120 4 120 10 0 6 -47 10 -120 10
-73 0 -120 -4 -120 -10z"/>
<path d="M75 380 c4 -6 70 -10 165 -10 95 0 161 4 165 10 4 7 -53 10 -165 10
-112 0 -169 -3 -165 -10z"/>
<path d="M27 354 c-4 -4 -7 -74 -7 -156 l0 -148 220 0 221 0 -3 153 -3 152
-211 3 c-115 1 -213 -1 -217 -4z m413 -149 l0 -135 -200 0 -200 0 0 135 0 135
200 0 200 0 0 -135z"/>
<path d="M228 233 c-3 -51 -6 -58 -25 -61 -24 -4 -39 -30 -25 -44 5 -5 22 -8
38 -6 28 3 29 5 32 61 3 55 4 57 27 51 18 -4 27 -1 31 11 8 21 -3 31 -43 40
l-32 6 -3 -58z"/>
</g>
</svg>
