<?xml version="1.0" encoding="UTF-8"?>
<svg xmlns="http://www.w3.org/2000/svg" xmlns:xlink="http://www.w3.org/1999/xlink" viewBox="0 0 96 96" width="96px" height="96px">
<g id="surface4064874">
<path style=" stroke:none;fill-rule:nonzero;fill:rgb(100%,100%,100%);fill-opacity:1;" d="M 22.398438 12.800781 C 21.582031 12.800781 20.761719 13.113281 20.136719 13.738281 L 13.738281 20.136719 C 12.484375 21.390625 12.484375 23.414062 13.738281 24.664062 L 37.074219 48 L 13.738281 71.335938 C 12.484375 72.589844 12.484375 74.613281 13.738281 75.863281 L 20.136719 82.261719 C 21.390625 83.515625 23.414062 83.515625 24.664062 82.261719 L 48 58.925781 L 71.335938 82.261719 C 72.585938 83.515625 74.613281 83.515625 75.863281 82.261719 L 82.261719 75.863281 C 83.515625 74.609375 83.515625 72.585938 82.261719 71.335938 L 58.925781 48 L 82.261719 24.664062 C 83.515625 23.414062 83.515625 21.386719 82.261719 20.136719 L 75.863281 13.738281 C 74.609375 12.484375 72.585938 12.484375 71.335938 13.738281 L 48 37.074219 L 24.664062 13.738281 C 24.035156 13.113281 23.21875 12.800781 22.398438 12.800781 Z M 22.398438 12.800781 "/>
</g>
</svg>
