<?xml version="1.0" encoding="UTF-8"?>
<svg xmlns="http://www.w3.org/2000/svg" xmlns:xlink="http://www.w3.org/1999/xlink" viewBox="0 0 48 48" width="48px" height="48px">
<g id="surface357014">
<path style=" stroke:none;fill-rule:nonzero;fill:rgb(100%,100%,100%);fill-opacity:1;" d="M 11.199219 6.398438 C 10.789062 6.398438 10.378906 6.554688 10.070312 6.867188 L 6.867188 10.070312 C 6.242188 10.695312 6.242188 11.707031 6.867188 12.332031 L 18.539062 24 L 6.867188 35.667969 C 6.242188 36.292969 6.242188 37.308594 6.867188 37.929688 L 10.070312 41.132812 C 10.695312 41.757812 11.707031 41.757812 12.332031 41.132812 L 24 29.460938 L 35.667969 41.132812 C 36.292969 41.757812 37.308594 41.757812 37.929688 41.132812 L 41.132812 37.929688 C 41.757812 37.304688 41.757812 36.292969 41.132812 35.667969 L 29.460938 24 L 41.132812 12.332031 C 41.757812 11.707031 41.757812 10.691406 41.132812 10.070312 L 37.929688 6.867188 C 37.304688 6.242188 36.292969 6.242188 35.667969 6.867188 L 24 18.539062 L 12.332031 6.867188 C 12.019531 6.554688 11.609375 6.398438 11.199219 6.398438 Z M 11.199219 6.398438 "/>
</g>
</svg>
